<?xml version="1.0" encoding="UTF-8"?><svg id="Layer_1" xmlns="http://www.w3.org/2000/svg" viewBox="0 0 350.8 371.33"><defs><style>.cls-1{fill:#fafafa;}</style></defs><path class="cls-1" d="M56.91,60.75h-30l-3.08,9.25H0L25.75,0h32.33l25.75,70h-23.83l-3.08-9.25ZM51.25,43.66l-7.33-22h-4l-7.33,22h18.67Z"/><path class="cls-1" d="M103.83,0h39.75c19.08,0,30.42,8.5,30.42,27.33s-11.33,27.33-30.33,27.33h-16.75v15.33h-23.08V0ZM141.58,35.5c5.58,0,9.17-2.75,9.17-8.17s-3.58-8.17-9.08-8.17h-14.75v16.33h14.67Z"/><path class="cls-1" d="M175.89,0h23.08v70h-23.08V0Z"/><path class="cls-1" d="M222.33,35.08v-1.17L198.67,0h24.83l12.25,18.75h2.17L250.16,0h24.83l-23.5,33.92v1.17l24.08,34.91h-25.08l-12.58-19.67h-2.17l-12.58,19.67h-25.08l24.25-34.91Z"/><path class="cls-1" d="M274.94,0h63.08v18.5h-40v8.92h38.5v15.17h-38.5v8.92h40v18.5h-63.08V0Z"/><path class="cls-1" d="M2.5,75h23.08v50.75h37.33v19.25H2.5v-70Z"/><path class="cls-1" d="M119.29,135.75h-30l-3.08,9.25h-23.83l25.75-70h32.33l25.75,70h-23.83l-3.08-9.25ZM113.63,118.66l-7.33-22h-4l-7.33,22h18.67Z"/><path class="cls-1" d="M208.87,94.25h-25.17v50.75h-23.08v-50.75h-25.17v-19.25h73.41v19.25Z"/><path class="cls-1" d="M209.34,75h63.08v18.5h-40v8.92h38.5v15.17h-38.5v8.92h40v18.5h-63.08v-70Z"/><path class="cls-1" d="M350.8,110c0,20.08-10,35-38.5,35h-35.17v-70h35.17c28.5,0,38.5,14.83,38.5,35ZM327.63,110c0-11.25-6.33-15.67-15.33-15.67h-12v31.33h12c9,0,15.33-4.5,15.33-15.67Z"/><path class="cls-1" d="M2.5,150h39.75c19.08,0,30.42,8.5,30.42,27.33s-11.33,27.33-30.33,27.33h-16.75v15.33H2.5v-70ZM40.25,185.5c5.58,0,9.17-2.75,9.17-8.17s-3.58-8.17-9.08-8.17h-14.75v16.33h14.67Z"/><path class="cls-1" d="M72.31,185c0-22.42,15.58-37.33,39.66-37.33s39.66,14.92,39.66,37.33-15.58,37.33-39.66,37.33-39.66-14.92-39.66-37.33ZM128.73,185c0-11.08-7.58-17.42-16.75-17.42s-16.75,6.33-16.75,17.42,7.58,17.42,16.75,17.42,16.75-6.33,16.75-17.42Z"/><path class="cls-1" d="M154.02,150h23.08v70h-23.08v-70Z"/><path class="cls-1" d="M181.82,150h26.5l23.25,37.83h2.08v-37.83h22.5v70h-25.92l-23.83-37.83h-2.08v37.83h-22.5v-70Z"/><path class="cls-1" d="M330,169.25h-25.17v50.75h-23.08v-50.75h-25.17v-19.25h73.41v19.25Z"/><path class="cls-1" d="M1.25,260c0-22.42,15.58-37.33,39.66-37.33s39.66,14.92,39.66,37.33-15.58,37.33-39.66,37.33S1.25,282.41,1.25,260ZM57.66,260c0-11.08-7.58-17.42-16.75-17.42s-16.75,6.33-16.75,17.42,7.58,17.42,16.75,17.42,16.75-6.33,16.75-17.42Z"/><path class="cls-1" d="M83.02,225h62.91v19.25h-39.83v9.5h38.08v16.67h-38.08v24.58h-23.08v-70Z"/><path class="cls-1" d="M0,300h23.83l16.83,48.33h2.5l16.83-48.33h23.83l-25.75,70H25.75L0,300Z"/><path class="cls-1" d="M83.4,300h23.08v70h-23.08v-70Z"/><path class="cls-1" d="M111.19,300h63.08v18.5h-40v8.92h38.5v15.17h-38.5v8.92h40v18.5h-63.08v-70Z"/><path class="cls-1" d="M174.94,300h23.42l7.5,45.33h2l10-45.33h18.33l10,45.33h2l7.5-45.33h23.42l-13.58,70h-31.17l-6.33-33.67h-2l-6.33,33.67h-31.17l-13.58-70Z"/><path class="cls-1" d="M276.47,360c0-6.17,5.25-11.33,11.5-11.33s11.5,5.17,11.5,11.33-5.25,11.33-11.5,11.33-11.5-5.17-11.5-11.33Z"/></svg>