<?xml version="1.0" encoding="UTF-8"?><svg xmlns="http://www.w3.org/2000/svg" viewBox="0 0 432.81 432.82"><defs><style>.cls-1{fill:#012169;}.cls-2{fill:#c8102e;}</style></defs><g id="Layer_1" image-rendering="optimizeQuality" shape-rendering="geometricPrecision" text-rendering="geometricPrecision"><path class="cls-1" d="M143.89,139.96V12.46c-41.32,14.7-76.85,41.61-102.27,76.35l102.27,51.15h0ZM143.89,292.86v127.5c-41.3-14.7-76.82-41.59-102.26-76.35l102.26-51.15ZM288.44,292.86v127.67c41.45-14.63,77.09-41.54,102.61-76.34l-102.61-51.33h0ZM288.44,139.96V12.29c41.45,14.63,77.11,41.54,102.62,76.35l-102.62,51.32h0Z"/><path class="cls-2" d="M408.7,288.57h-48.11l49.35,24.72c3.21-6.41,6.11-13,8.69-19.75l-9.93-4.97h0ZM399.36,100.81l-86.42,43.33h48.11l48.95-24.5c-3.23-6.46-6.79-12.75-10.64-18.83h0ZM172.81,259.67v168.75c14.08,2.87,28.66,4.4,43.59,4.4s29.19-1.49,43.13-4.3v-168.85h168.94c2.83-13.98,4.34-28.44,4.34-43.27s-1.51-29.42-4.37-43.47h-168.91V4.31C245.33,1.44,230.88,0,216.4,0,201.47,0,186.89,1.54,172.81,4.4v168.53H4.37C1.46,187.24,0,201.8,0,216.4,0,231.23,1.51,245.69,4.34,259.67h168.47ZM23.52,144.25h48.11l-48.89-24.48c-3.2,6.41-6.11,13.02-8.68,19.76,0,0,9.46,4.72,9.46,4.72ZM119.39,288.68h-48.11l-48.57,24.31c3.24,6.49,6.81,12.81,10.69,18.94l86.43-43.25h-.44,0Z"/></g></svg>